<svg width="11" height="9" viewBox="0 0 11 9" fill="none" xmlns="http://www.w3.org/2000/svg">
<path fill-rule="evenodd" clip-rule="evenodd" d="M4.83466 0.217744L4.78891 0.164752C4.59064 -0.0380198 4.27867 -0.0536177 4.06291 0.117959L4.01109 0.164752L0.161091 4.10225L0.138323 4.12698L0.107984 4.16514L0.0685692 4.22772L0.039174 4.29112L0.0197148 4.35038L0.00379894 4.43357L0 4.5L0.00153332 4.54232L0.011132 4.61291L0.0273559 4.67558L0.0515204 4.73806L0.0802975 4.7929L0.120829 4.85182L0.161091 4.89775L4.01109 8.83525C4.22588 9.05492 4.57412 9.05492 4.78891 8.83525C4.98717 8.63247 5.00243 8.31341 4.83466 8.09274L4.78891 8.03975L1.8788 5.0625H10.45C10.7538 5.0625 11 4.81066 11 4.5C11 4.18934 10.7538 3.9375 10.45 3.9375H1.8777L4.78891 0.960248C4.98717 0.757475 5.00243 0.438408 4.83466 0.217744Z" fill="#353535"/>
</svg>
