<svg width="30" height="30" viewBox="0 0 30 30" fill="none" xmlns="http://www.w3.org/2000/svg">
<path fill-rule="evenodd" clip-rule="evenodd" d="M7.5 21H22.5C26.6421 21 30 24.3579 30 28.5C30 29.3284 29.3284 30 28.5 30C27.7307 30 27.0967 29.4209 27.0101 28.6749L26.9924 28.2356C26.8606 25.9609 25.0391 24.1394 22.7644 24.0076L22.5 24H7.5C5.01472 24 3 26.0147 3 28.5C3 29.3284 2.32843 30 1.5 30C0.671573 30 0 29.3284 0 28.5C0 24.4669 3.18346 21.1773 7.17467 21.0069L7.5 21H22.5H7.5ZM15 0C19.9706 0 24 4.02944 24 9C24 13.9706 19.9706 18 15 18C10.0294 18 6 13.9706 6 9C6 4.02944 10.0294 0 15 0ZM15 3C11.6863 3 9 5.68629 9 9C9 12.3137 11.6863 15 15 15C18.3137 15 21 12.3137 21 9C21 5.68629 18.3137 3 15 3Z" fill="#8EB540"/>
</svg>
