<svg width="17" height="17" viewBox="0 0 17 17" fill="none" xmlns="http://www.w3.org/2000/svg">
<path fill-rule="evenodd" clip-rule="evenodd" d="M10.3057 0.85327C9.35518 0.155477 8.06172 0.155477 7.11121 0.85327L6.17655 1.53944C6.02228 1.65269 5.84293 1.72698 5.65377 1.75598L4.50766 1.9317C3.34214 2.11039 2.42753 3.02501 2.24884 4.19052L2.07312 5.33663C2.04412 5.52579 1.96983 5.70514 1.85657 5.85941L1.17041 6.79408C0.472616 7.74458 0.472616 9.03803 1.17041 9.98854L1.85657 10.9232C1.96983 11.0775 2.04412 11.2568 2.07312 11.446L2.24884 12.5921C2.42753 13.7576 3.34214 14.6722 4.50766 14.8509L5.65377 15.0266C5.84293 15.0557 6.02228 15.1299 6.17655 15.2432L7.11121 15.9293C8.06172 16.6271 9.35517 16.6271 10.3057 15.9293L11.2403 15.2432C11.3946 15.1299 11.574 15.0557 11.7631 15.0266L12.9092 14.8509C14.0747 14.6722 14.9894 13.7576 15.168 12.5921L15.3438 11.446C15.3728 11.2568 15.4471 11.0775 15.5603 10.9232L16.2464 9.98854C16.9443 9.03803 16.9443 7.74458 16.2464 6.79408L15.5603 5.85941C15.4471 5.70514 15.3728 5.52579 15.3438 5.33663L15.168 4.19052C14.9894 3.02501 14.0747 2.11039 12.9092 1.9317L11.7631 1.75598C11.574 1.72698 11.3946 1.65269 11.2403 1.53944L10.3057 0.85327ZM8.00569 2.0717C8.4239 1.76468 8.99299 1.76468 9.4112 2.0717L10.3459 2.75786C10.6965 3.01526 11.1041 3.18412 11.5341 3.25003L12.6802 3.42575C13.193 3.50437 13.5954 3.90678 13.674 4.41959L13.8497 5.56568C13.9156 5.99563 14.0845 6.40327 14.3419 6.7539L15.0281 7.68856C15.3351 8.10676 15.3351 8.67585 15.0281 9.09406L14.3419 10.0287C14.0845 10.3793 13.9156 10.7869 13.8497 11.2169L13.674 12.363C13.5954 12.8759 13.193 13.2782 12.6802 13.3568L11.5341 13.5326C11.1041 13.5985 10.6965 13.7673 10.3459 14.0248L9.4112 14.7109C8.99299 15.018 8.4239 15.018 8.00569 14.7109L7.07104 14.0248C6.72041 13.7673 6.31276 13.5985 5.88282 13.5326L4.73672 13.3568C4.22392 13.2782 3.82151 12.8759 3.74289 12.363L3.56717 11.2169C3.50126 10.7869 3.3324 10.3793 3.075 10.0287L2.38884 9.09406C2.08182 8.67585 2.08182 8.10676 2.38884 7.68856L3.075 6.75389C3.3324 6.40327 3.50126 5.99563 3.56717 5.56568L3.74289 4.41959C3.82151 3.90678 4.22392 3.50437 4.73672 3.42575L5.88282 3.25003C6.31276 3.18412 6.72041 3.01526 7.07103 2.75786L8.00569 2.0717ZM12.0139 7.16228C12.3091 6.86714 12.3091 6.38862 12.0139 6.09348C11.7188 5.79834 11.2403 5.79834 10.9452 6.09348L7.70077 9.33785L6.47175 8.10883C6.17661 7.81369 5.69808 7.81369 5.40295 8.10883C5.10781 8.40396 5.10781 8.88249 5.40295 9.17762L7.16637 10.941C7.46151 11.2362 7.94003 11.2362 8.23517 10.941L12.0139 7.16228Z" fill="#8EB540"/>
</svg>
