<svg width="12" height="11" viewBox="0 0 12 11" fill="none" xmlns="http://www.w3.org/2000/svg">
<path fill-rule="evenodd" clip-rule="evenodd" d="M2.83554 10.9978C1.91838 10.9978 1.17487 10.2592 1.17487 9.34812V6.04879H0.621316C0.12815 6.04879 -0.118828 5.45648 0.229893 5.11007L5.21189 0.161059C5.42807 -0.0536863 5.77856 -0.0536863 5.99474 0.161059L10.9767 5.11007C11.3255 5.45648 11.0785 6.04879 10.5853 6.04879H10.0318V9.34812C10.0318 10.2592 9.28826 10.9978 8.37109 10.9978H2.83554ZM5.60333 1.32764L1.92269 4.9839C2.13259 5.06205 2.282 5.26318 2.282 5.49898V9.34821C2.282 9.65191 2.52983 9.8981 2.83555 9.8981L3.94266 9.89755L3.94267 7.69854C3.94267 7.09115 4.43834 6.59876 5.04978 6.59876H6.15689C6.76833 6.59876 7.264 7.09115 7.264 7.69854L7.264 9.89755L8.37111 9.8981C8.67683 9.8981 8.92467 9.65191 8.92467 9.34821V5.49898C8.92467 5.26318 9.07407 5.06205 9.28397 4.9839L5.60333 1.32764ZM6.15699 7.69831H5.04965L5.04965 9.89776H6.15698L6.15699 7.69831Z" fill="#8EB540"/>
</svg>
