<svg width="12" height="11" viewBox="0 0 12 11" fill="none" xmlns="http://www.w3.org/2000/svg">
<path fill-rule="evenodd" clip-rule="evenodd" d="M5.04965 0C7.80169 0 10.0326 2.21619 10.0326 4.95C10.0326 6.11863 9.62498 7.19267 8.9432 8.03945L10.9778 10.0611C11.194 10.2759 11.194 10.6241 10.9778 10.8389C10.7782 11.0372 10.4642 11.0524 10.247 10.8847L10.1948 10.8389L8.15969 8.81777C7.30727 9.49503 6.22607 9.9 5.04965 9.9C2.29762 9.9 0.0666504 7.68381 0.0666504 4.95C0.0666504 2.21619 2.29762 0 5.04965 0ZM5.04976 1.10011C2.90929 1.10011 1.17409 2.82381 1.17409 4.95011C1.17409 7.0764 2.90929 8.80011 5.04976 8.80011C7.19023 8.80011 8.92542 7.0764 8.92542 4.95011C8.92542 2.82381 7.19023 1.10011 5.04976 1.10011Z" fill="#8EB540"/>
</svg>
