<svg width="11" height="11" viewBox="0 0 11 11" fill="none" xmlns="http://www.w3.org/2000/svg">
<path fill-rule="evenodd" clip-rule="evenodd" d="M4.95 0H6.05C6.92872 0 7.64701 0.686906 7.6972 1.55305L7.7 1.65V2.2H9.35C10.2613 2.2 11 2.93873 11 3.85V9.35C11 10.2613 10.2613 11 9.35 11H1.65C0.73873 11 0 10.2613 0 9.35V3.85C0 2.93873 0.73873 2.2 1.65 2.2H3.3V1.65C3.3 0.771276 3.98691 0.0529865 4.85305 0.00280098L4.95 0H6.05H4.95ZM9.9 7.7H1.1V9.35C1.1 9.65376 1.34624 9.9 1.65 9.9H9.35C9.65376 9.9 9.9 9.65376 9.9 9.35V7.7ZM9.35 3.3H1.65C1.34624 3.3 1.1 3.54624 1.1 3.85V6.6H9.9V3.85C9.9 3.54624 9.65376 3.3 9.35 3.3ZM6.05 1.1H4.95C4.66794 1.1 4.43547 1.31232 4.4037 1.58586L4.4 1.65V2.2H6.6V1.65C6.6 1.36794 6.38768 1.13547 6.11414 1.1037L6.05 1.1Z" fill="#8EB540"/>
</svg>
