<svg width="10" height="11" viewBox="0 0 10 11" fill="none" xmlns="http://www.w3.org/2000/svg">
<path fill-rule="evenodd" clip-rule="evenodd" d="M4.82143 0.803467C7.48423 0.803467 9.64286 2.96209 9.64286 5.6249C9.64286 8.2877 7.48423 10.4463 4.82143 10.4463C2.15863 10.4463 0 8.2877 0 5.6249C0 2.96209 2.15863 0.803467 4.82143 0.803467ZM6.25456 6.10742H3.38827C3.44176 7.0734 3.65421 7.95282 3.97926 8.60293C4.282 9.2084 4.60549 9.48205 4.82141 9.48205C5.03733 9.48205 5.36083 9.2084 5.66356 8.60293C5.98862 7.95282 6.20107 7.0734 6.25456 6.10742ZM8.64856 6.10742L7.2201 6.10755C7.16177 7.28104 6.89306 8.33072 6.49048 9.10358C7.64675 8.54736 8.48327 7.43163 8.64856 6.10742ZM2.42264 6.10763L0.994183 6.1075C1.15948 7.43171 1.99603 8.5474 3.15256 9.10329C2.7749 8.37904 2.51509 7.41124 2.43603 6.32617L2.42264 6.10763ZM3.15227 2.14624L3.13966 2.15284C1.9897 2.71086 1.1587 3.82334 0.994141 5.14279L2.42263 5.14275C2.48091 3.96906 2.74964 2.9192 3.15227 2.14624ZM4.82144 1.76774L4.78225 1.77059C4.56753 1.80108 4.26422 2.07701 3.97929 2.64686C3.65418 3.29708 3.44172 4.17669 3.38827 5.14285H6.25461C6.20116 4.17669 5.9887 3.29708 5.66359 2.64686C5.36086 2.0414 5.03736 1.76774 4.82144 1.76774ZM6.4903 2.14649L6.50119 2.1666C6.89798 2.93765 7.16252 3.97948 7.22025 5.14297L8.64874 5.14276C8.48358 3.81834 7.64697 2.70245 6.4903 2.14649Z" fill="#F5F5F5"/>
</svg>
