<svg width="31" height="30" viewBox="0 0 31 30" fill="none" xmlns="http://www.w3.org/2000/svg">
<path fill-rule="evenodd" clip-rule="evenodd" d="M7.50301 30C5.01773 30 3.00301 27.9853 3.00301 25.5V16.5H1.50301C0.16665 16.5 -0.5026 14.8843 0.442347 13.9393L13.9423 0.43934C14.5281 -0.146447 15.4779 -0.146447 16.0637 0.43934L29.5637 13.9393C30.5086 14.8843 29.8394 16.5 28.503 16.5H27.003V25.5C27.003 27.9853 24.9883 30 22.503 30H7.50301ZM15.003 3.62131L5.02939 13.5949C5.59818 13.8081 6.00303 14.3568 6.00303 15V25.5C6.00303 26.3284 6.6746 27 7.50303 27L10.503 26.9985L10.503 21C10.503 19.3431 11.8462 18 13.503 18H16.503C18.1599 18 19.503 19.3431 19.503 21L19.503 26.9985L22.503 27C23.3315 27 24.003 26.3284 24.003 25.5V15C24.003 14.3568 24.4079 13.8081 24.9767 13.5949L15.003 3.62131ZM16.5029 21H13.5029L13.5029 26.9985H16.5029L16.5029 21Z" fill="#353535"/>
</svg>
