<svg width="19" height="19" viewBox="0 0 19 19" fill="none" xmlns="http://www.w3.org/2000/svg">
<path fill-rule="evenodd" clip-rule="evenodd" d="M9.48448 0.455902C14.4331 0.455902 18.4448 4.46757 18.4448 9.41621C18.4448 14.3649 14.4331 18.3765 9.48448 18.3765C4.53584 18.3765 0.52417 14.3649 0.52417 9.41621C0.52417 4.46757 4.53584 0.455902 9.48448 0.455902ZM12.1479 10.313H6.82106C6.92046 12.1082 7.31529 13.7425 7.91938 14.9507C8.48199 16.0759 9.08319 16.5845 9.48446 16.5845C9.88573 16.5845 10.4869 16.0759 11.0495 14.9507C11.6536 13.7425 12.0485 12.1082 12.1479 10.313ZM16.5971 10.3131L13.9424 10.3134C13.834 12.4942 13.3346 14.445 12.5865 15.8813C14.7353 14.8476 16.2899 12.7741 16.5971 10.3131ZM5.02665 10.3134L2.37195 10.3131C2.67914 12.7741 4.23382 14.8475 6.38315 15.8806C5.68129 14.5346 5.19847 12.736 5.05153 10.7195L5.02665 10.3134ZM6.38224 2.95119L6.3588 2.96346C4.22168 4.00051 2.67732 6.06797 2.37149 8.52008L5.02624 8.52001C5.13455 6.33879 5.63396 4.38769 6.38224 2.95119ZM9.48451 2.24788L9.41167 2.25318C9.01264 2.30984 8.44895 2.82263 7.91943 3.88166C7.31524 5.09004 6.92038 6.72474 6.82106 8.52029H12.148C12.0486 6.72474 11.6538 5.09004 11.0496 3.88166C10.487 2.75644 9.88578 2.24788 9.48451 2.24788ZM12.586 2.9518L12.6062 2.98917C13.3436 4.42212 13.8353 6.35828 13.9426 8.52055L16.5973 8.52017C16.2904 6.05882 14.7356 3.98501 12.586 2.9518Z" fill="#353535"/>
</svg>
