<svg width="10" height="10" viewBox="0 0 10 10" fill="none" xmlns="http://www.w3.org/2000/svg">
<path d="M5.00001 0C7.76144 0 10 2.23858 10 5.00001C10 7.76144 7.76144 10 5.00001 10C2.23858 10 0 7.76144 0 5.00001C0 2.23858 2.23858 0 5.00001 0Z" fill="#FBA500"/>
<path d="M5.00024 8.76798C7.08121 8.76798 8.76817 7.08102 8.76817 5.00005C8.76817 2.91908 7.08121 1.23212 5.00024 1.23212C2.91926 1.23212 1.2323 2.91908 1.2323 5.00005C1.2323 7.08102 2.91926 8.76798 5.00024 8.76798Z" fill="#FEDB41"/>
<path d="M4.01041 2.98599C4.07469 3.10384 4.14791 3.25027 4.23005 3.42527C4.31577 3.5967 4.40327 3.7842 4.49255 3.98777C4.58541 4.18777 4.67648 4.39313 4.76577 4.60384C4.85505 4.81456 4.93898 5.01277 5.01755 5.19849C5.09612 5.01277 5.18005 4.81456 5.26934 4.60384C5.35862 4.39313 5.44791 4.18777 5.53719 3.98777C5.63005 3.7842 5.71755 3.5967 5.79969 3.42527C5.88541 3.25027 5.96041 3.10384 6.02469 2.98599H6.78541C6.82112 3.23241 6.85327 3.5092 6.88184 3.81634C6.91398 4.11991 6.94077 4.43777 6.96219 4.76991C6.98719 5.09849 7.00862 5.42884 7.02648 5.76099C7.04791 6.09313 7.06577 6.40563 7.08005 6.69849H6.26577C6.25505 6.33777 6.24077 5.94491 6.22291 5.51991C6.20505 5.09491 6.17827 4.66634 6.14255 4.2342C6.07827 4.3842 6.00684 4.55027 5.92827 4.73241C5.84969 4.91456 5.77112 5.0967 5.69255 5.27884C5.61755 5.46099 5.54434 5.63599 5.47291 5.80384C5.40148 5.96813 5.34077 6.1092 5.29077 6.22706H4.70684C4.65684 6.1092 4.59612 5.96813 4.52469 5.80384C4.45326 5.63599 4.37826 5.46099 4.29969 5.27884C4.22469 5.0967 4.14791 4.91456 4.06934 4.73241C3.99076 4.55027 3.91934 4.3842 3.85505 4.2342C3.81934 4.66634 3.79255 5.09491 3.77469 5.51991C3.75684 5.94491 3.74255 6.33777 3.73184 6.69849H2.91755C2.93184 6.40563 2.94791 6.09313 2.96576 5.76099C2.98719 5.42884 3.00862 5.09849 3.03005 4.76991C3.05505 4.43777 3.08184 4.11991 3.11041 3.81634C3.14255 3.5092 3.17648 3.23241 3.21219 2.98599H4.01041Z" fill="#FBA500"/>
</svg>
