<svg width="30" height="30" viewBox="0 0 30 30" fill="none" xmlns="http://www.w3.org/2000/svg">
<path fill-rule="evenodd" clip-rule="evenodd" d="M13.5 0C20.9558 0 27 6.04416 27 13.5C27 16.6872 25.8955 19.6164 24.0485 21.9258L29.5607 27.4393C30.1464 28.0251 30.1464 28.9749 29.5607 29.5607C29.0199 30.1014 28.1691 30.143 27.5807 29.6854L27.4393 29.5607L21.9258 24.0485C19.6164 25.8955 16.6872 27 13.5 27C6.04416 27 0 20.9558 0 13.5C0 6.04416 6.04416 0 13.5 0ZM13.5 3C7.70101 3 3 7.70101 3 13.5C3 19.299 7.70101 24 13.5 24C19.299 24 24 19.299 24 13.5C24 7.70101 19.299 3 13.5 3Z" fill="#353535"/>
</svg>
