<svg width="30" height="30" viewBox="0 0 30 30" fill="none" xmlns="http://www.w3.org/2000/svg">
<path fill-rule="evenodd" clip-rule="evenodd" d="M13.5 0H16.5C18.8965 0 20.8555 1.87338 20.9924 4.23559L21 4.5V6H25.5C27.9853 6 30 8.01472 30 10.5V25.5C30 27.9853 27.9853 30 25.5 30H4.5C2.01472 30 0 27.9853 0 25.5V10.5C0 8.01472 2.01472 6 4.5 6H9V4.5C9 2.10348 10.8734 0.144509 13.2356 0.00763904L13.5 0H16.5H13.5ZM27.0003 20.9999H3.00027V25.4999C3.00027 26.3283 3.67184 26.9999 4.50027 26.9999H25.5003C26.3287 26.9999 27.0003 26.3283 27.0003 25.4999V20.9999ZM25.5003 9.00013H4.50027C3.67184 9.00013 3.00027 9.67171 3.00027 10.5001V18.0001H27.0003V10.5001C27.0003 9.67171 26.3287 9.00013 25.5003 9.00013ZM16.4997 2.99993H13.4997C12.7305 2.99993 12.0965 3.57899 12.0098 4.325L11.9997 4.49993V5.99993H17.9997V4.49993C17.9997 3.73068 17.4207 3.09667 16.6747 3.01003L16.4997 2.99993Z" fill="#353535"/>
</svg>
